<?xml version="1.0" encoding="utf-8"?>
<!-- Generator: Adobe Illustrator 16.0.0, SVG Export Plug-In . SVG Version: 6.00 Build 0)  -->
<!DOCTYPE svg PUBLIC "-//W3C//DTD SVG 1.1//EN" "http://www.w3.org/Graphics/SVG/1.1/DTD/svg11.dtd">
<svg version="1.1" id="Layer_1" xmlns="http://www.w3.org/2000/svg" xmlns:xlink="http://www.w3.org/1999/xlink" x="0px" y="0px"
	 width="247px" height="50px" viewBox="0 0 247 50" enable-background="new 0 0 247 50" xml:space="preserve">
<g>
	<g>
		<g>
			<path fill="#3386FF" d="M22.888,39.637c0,0,0-7.256,0-8.327c-0.002-0.099-0.103-0.442-0.397-0.163
				c-1.654,1.947-9.664,6.791-9.664,6.791c-0.239,0.136-0.133,0.354,0.026,0.402c0.158,0.052,8.206,2.523,8.206,2.523
				C22.29,41.231,22.907,40.864,22.888,39.637z"/>
		</g>
		<path fill="#5FA8FF" d="M22.566,21.311c-4.06,0.024-5.875,1.605-8.104,3.552c-2.452,2.143-5.211,4.321-11.301,4.981
			c-0.293,0.037-0.381,0.174-0.381,0.414c0,1.789,0,9.058,0,9.785c0,0.873,0.714,1.26,1.495,0.684
			c0.78-0.576,14.368-9.553,14.368-9.553c2.687-1.789,3.515-2.972,4.113-4.46c0.327-0.813,0.173-5.021,0.173-5.021
			S22.947,21.312,22.566,21.311z"/>
		<path fill="#3386FF" d="M12.978,22.763c2.268-1.98,4.604-4.021,9.438-4.1c0.287-0.002,0.359-0.233,0.336-0.35
			c-0.884-4.443-4.98-7.804-9.898-7.804c-5.564,0-10.074,4.3-10.074,9.605v6.878c0,0-0.012,0.356,0.381,0.317
			C8.371,26.69,10.71,24.745,12.978,22.763z"/>
	</g>
	<g>
		<path fill="#3386FF" d="M54.113,34.908l-1.499-3.576h-8.267l-1.499,3.576h-3.36l7.421-16.92h3.36l7.324,16.92H54.113z
			 M45.508,28.551h5.946l-2.949-7.106L45.508,28.551z"/>
		<path fill="#3386FF" d="M59.647,17.988h12.4v2.828h-9.161v4.183h8.218v2.828h-8.218v4.253h9.451v2.828h-12.69V17.988
			L59.647,17.988z"/>
		<path fill="#3386FF" d="M87.106,26.497h2.828v6.429c-0.886,0.66-1.934,1.197-3.142,1.606c-1.208,0.411-2.393,0.617-3.553,0.617
			c-1.66,0-3.171-0.388-4.532-1.161c-1.362-0.773-2.438-1.824-3.227-3.154c-0.79-1.328-1.184-2.798-1.184-4.41
			c0-1.611,0.402-3.073,1.208-4.387c0.806-1.313,1.905-2.354,3.299-3.118c1.394-0.766,2.937-1.148,4.629-1.148
			c1.208,0,2.401,0.218,3.577,0.653c1.176,0.435,2.191,1.031,3.046,1.789l-1.837,2.393c-0.645-0.611-1.39-1.088-2.236-1.426
			c-0.846-0.338-1.696-0.507-2.55-0.507c-1.063,0-2.042,0.253-2.937,0.761c-0.894,0.508-1.6,1.205-2.115,2.091
			c-0.516,0.887-0.773,1.854-0.773,2.9c0,1.063,0.262,2.038,0.785,2.925s1.229,1.588,2.115,2.104
			c0.886,0.516,1.869,0.773,2.949,0.773c0.58,0,1.188-0.094,1.825-0.278c0.636-0.186,1.245-0.446,1.825-0.784V26.497L87.106,26.497z
			"/>
		<path fill="#3386FF" d="M93.681,17.988h12.4v2.828H96.92v4.183h8.218v2.828H96.92v4.253h9.451v2.828h-12.69V17.988z"/>
		<path fill="#3386FF" d="M122.179,34.908l-1.499-3.576h-8.267l-1.499,3.576h-3.36l7.421-16.92h3.36l7.324,16.92H122.179z
			 M113.574,28.551h5.946l-2.949-7.106L113.574,28.551z"/>
		<path fill="#3386FF" d="M139.51,17.988h3.143v16.92h-3.07l-8.702-11.649v11.649h-3.167v-16.92h3.07l8.726,11.676L139.51,17.988
			L139.51,17.988z"/>
		<path fill="#3386FF" d="M164.213,26.497h2.828v6.429c-0.887,0.66-1.936,1.197-3.143,1.606c-1.209,0.411-2.396,0.617-3.556,0.617
			c-1.657,0-3.17-0.388-4.53-1.161c-1.361-0.773-2.438-1.824-3.228-3.154c-0.791-1.328-1.185-2.798-1.185-4.41
			c0-1.611,0.402-3.073,1.207-4.387c0.808-1.313,1.906-2.354,3.3-3.118c1.395-0.766,2.938-1.148,4.629-1.148
			c1.209,0,2.401,0.218,3.577,0.653c1.177,0.435,2.191,1.031,3.046,1.789l-1.837,2.393c-0.645-0.611-1.391-1.088-2.235-1.426
			s-1.694-0.507-2.551-0.507c-1.063,0-2.041,0.253-2.937,0.761c-0.895,0.508-1.6,1.205-2.115,2.091
			c-0.515,0.887-0.772,1.854-0.772,2.9c0,1.063,0.263,2.038,0.785,2.925s1.229,1.588,2.114,2.104
			c0.887,0.516,1.869,0.773,2.949,0.773c0.58,0,1.188-0.094,1.824-0.278c0.637-0.185,1.246-0.446,1.826-0.784v-4.667H164.213z"/>
		<path fill="#3386FF" d="M174.848,31.088c0.758,0.759,1.772,1.138,3.047,1.138c1.271,0,2.274-0.379,3.008-1.138
			c0.734-0.756,1.101-1.805,1.101-3.142v-9.958h3.239v9.958c0,1.466-0.299,2.744-0.895,3.832c-0.597,1.087-1.447,1.921-2.551,2.501
			s-2.404,0.871-3.902,0.871c-1.517,0-2.834-0.291-3.953-0.871s-1.979-1.414-2.573-2.501c-0.597-1.088-0.896-2.364-0.896-3.832
			v-9.958h3.239v9.958C173.712,29.284,174.09,30.332,174.848,31.088z"/>
		<path fill="#3386FF" d="M189.061,17.988h3.238v16.92h-3.238V17.988z"/>
		<path fill="#3386FF" d="M208.035,19.064c1.337,0.717,2.384,1.72,3.142,3.009c0.759,1.29,1.138,2.748,1.138,4.375
			c0,1.629-0.385,3.082-1.148,4.363c-0.766,1.28-1.825,2.284-3.18,3.009c-1.354,0.727-2.893,1.088-4.615,1.088h-6.913v-16.92h7.033
			C205.184,17.988,206.697,18.348,208.035,19.064z M206.354,31.342c0.83-0.475,1.479-1.135,1.946-1.98
			c0.468-0.847,0.701-1.809,0.701-2.889c0-1.079-0.242-2.05-0.726-2.913c-0.483-0.862-1.148-1.531-1.994-2.006
			s-1.793-0.713-2.84-0.713h-3.748v11.215h3.869C204.594,32.056,205.523,31.818,206.354,31.342z"/>
		<path fill="#3386FF" d="M215.143,17.988h12.398v2.828h-9.161v4.183h8.22v2.828h-8.22v4.253h9.451v2.828h-12.688V17.988
			L215.143,17.988z"/>
		<path fill="#3386FF" d="M239.082,21.106c-0.91-0.29-1.712-0.435-2.405-0.435c-0.772,0-1.386,0.145-1.837,0.435
			s-0.677,0.693-0.677,1.208c0,0.467,0.157,0.858,0.472,1.172c0.314,0.314,0.709,0.572,1.186,0.773
			c0.475,0.202,1.123,0.423,1.945,0.665c1.145,0.338,2.082,0.677,2.815,1.015s1.356,0.838,1.873,1.499s0.772,1.53,0.772,2.61
			c0,1.031-0.277,1.93-0.834,2.695c-0.556,0.764-1.32,1.35-2.295,1.752c-0.977,0.402-2.092,0.604-3.349,0.604
			c-1.321,0-2.61-0.245-3.868-0.737c-1.257-0.491-2.354-1.147-3.287-1.97l1.354-2.756c0.854,0.789,1.813,1.41,2.878,1.861
			c1.063,0.45,2.055,0.676,2.973,0.676c0.902,0,1.611-0.172,2.127-0.52c0.517-0.347,0.772-0.816,0.772-1.414
			c0-0.482-0.155-0.882-0.471-1.195c-0.314-0.314-0.713-0.568-1.195-0.763c-0.483-0.193-1.146-0.41-1.982-0.651
			c-1.145-0.338-2.078-0.668-2.804-0.991c-0.726-0.322-1.347-0.81-1.861-1.462s-0.772-1.511-0.772-2.574
			c0-0.982,0.262-1.841,0.785-2.574c0.522-0.732,1.265-1.301,2.224-1.704c0.959-0.402,2.067-0.604,3.323-0.604
			c1.097,0,2.18,0.162,3.252,0.483c1.07,0.322,2.025,0.758,2.863,1.306l-1.306,2.828C240.883,21.808,239.992,21.396,239.082,21.106z
			"/>
	</g>
</g>
</svg>
