<?xml version="1.0" encoding="utf-8"?>
<!-- Generator: Adobe Illustrator 16.0.0, SVG Export Plug-In . SVG Version: 6.00 Build 0)  -->
<!DOCTYPE svg PUBLIC "-//W3C//DTD SVG 1.1//EN" "http://www.w3.org/Graphics/SVG/1.1/DTD/svg11.dtd">
<svg version="1.1" id="Layer_1" xmlns="http://www.w3.org/2000/svg" xmlns:xlink="http://www.w3.org/1999/xlink" x="0px" y="0px"
	 width="200px" height="200px" xml:space="preserve">
<g>
	<g>
		<g>
			<g>
				<path fill="#3386FF" d="M124.312,133.123c0,0,0-16.67,0-19.131c-0.005-0.227-0.237-1.018-0.913-0.375
					c-3.801,4.477-22.203,15.604-22.203,15.604c-0.549,0.309-0.306,0.813,0.06,0.928c0.364,0.115,18.854,5.795,18.854,5.795
					C122.937,136.787,124.355,135.945,124.312,133.123z"/>
			</g>
		</g>
		<g>
			<path fill="#5FA8FF" d="M123.571,91.016c-9.327,0.056-13.497,3.689-18.618,8.162c-5.632,4.921-11.974,9.929-25.964,11.447
				c-0.673,0.086-0.875,0.4-0.875,0.951c0,4.111,0,20.809,0,22.479c0,2.008,1.64,2.896,3.434,1.572s33.011-21.947,33.011-21.947
				c6.174-4.107,8.075-6.83,9.45-10.249c0.751-1.869,0.397-11.537,0.397-11.537S124.446,91.02,123.571,91.016z"/>
		</g>
		<g>
			<path fill="#3386FF" d="M101.542,94.353c5.21-4.552,10.58-9.241,21.686-9.417c0.659-0.007,0.825-0.538,0.772-0.802
				c-2.031-10.21-11.44-17.931-22.742-17.931c-12.782,0-23.144,9.88-23.144,22.07v15.802c0,0-0.028,0.82,0.876,0.73
				C90.957,103.379,96.332,98.906,101.542,94.353z"/>
		</g>
	</g>
	<g>
		<g>
			<path fill="#1273FF" d="M40.845,45.717l-2.06-0.623l-2.472,2.934l0.964,1.924l-1.4,1.663l-4.452-8.92l1.274-1.512l9.546,2.872
				L40.845,45.717z M34.149,43.688l1.291,2.593l1.476-1.752L34.149,43.688z"/>
			<path fill="#1273FF" d="M44.628,29.61l1.189,1.377l-3.449,2.977l1.231,1.427l3.103-2.677l1.137,1.318l-3.102,2.677l1.24,1.438
				l3.558-3.071l1.181,1.368l-5.104,4.405l-5.979-6.928L44.628,29.61z"/>
			<path fill="#1273FF" d="M57.676,26.154l1.75-1.079l1.704,2.764c-0.241,1.338-1.046,2.429-2.413,3.271
				c-1.145,0.706-2.338,0.918-3.582,0.639c-1.244-0.279-2.222-0.997-2.934-2.152c-0.712-1.155-0.911-2.363-0.596-3.624
				c0.315-1.261,1.032-2.235,2.15-2.925s2.316-0.92,3.594-0.693l-0.099,1.861c-0.537-0.089-0.988-0.101-1.353-0.036
				c-0.364,0.066-0.717,0.204-1.059,0.415c-0.662,0.408-1.08,0.976-1.256,1.705c-0.176,0.729-0.037,1.461,0.416,2.197
				c0.454,0.736,1.034,1.19,1.741,1.365c0.708,0.174,1.362,0.076,1.964-0.295c0.602-0.371,1.032-0.795,1.292-1.273L57.676,26.154z"
				/>
			<path fill="#1273FF" d="M69.329,15.682l0.695,1.682l-4.211,1.739l0.72,1.743l3.787-1.564l0.665,1.609l-3.788,1.564l0.725,1.754
				l4.344-1.794l0.69,1.67l-6.232,2.574l-3.494-8.458L69.329,15.682z"/>
			<path fill="#1273FF" d="M84.443,20.926l-1.28-1.729l-3.734,0.877l-0.376,2.119l-2.116,0.497l1.756-9.813l1.925-0.452l5.942,8.004
				L84.443,20.926z M80.284,15.301l-0.514,2.851L82,17.627L80.284,15.301z"/>
			<path fill="#1273FF" d="M97.004,10.322l2.039-0.118l0.53,9.136l-2.039,0.119l-4.685-5.472l0.333,5.725l-2.039,0.118l-0.53-9.136
				l1.908-0.111l4.824,5.622L97.004,10.322z"/>
			<path fill="#1273FF" d="M119.291,16.965l2.014,0.416l-0.656,3.18c-1.094,0.809-2.427,1.05-4,0.726
				c-1.316-0.271-2.331-0.935-3.044-1.991c-0.714-1.056-0.934-2.249-0.659-3.578s0.958-2.344,2.052-3.046
				c1.094-0.701,2.284-0.919,3.57-0.654c1.286,0.266,2.317,0.919,3.091,1.961l-1.348,1.286c-0.33-0.433-0.649-0.751-0.96-0.953
				s-0.662-0.344-1.055-0.425c-0.762-0.157-1.456-0.031-2.084,0.379s-1.029,1.038-1.204,1.884c-0.174,0.846-0.063,1.575,0.331,2.187
				c0.396,0.612,0.939,0.989,1.632,1.132c0.692,0.143,1.297,0.129,1.813-0.041L119.291,16.965z"/>
			<path fill="#1273FF" d="M128.634,22.19c0.162,0.518,0.513,0.882,1.049,1.092c0.537,0.209,1.038,0.179,1.506-0.094
				c0.467-0.271,0.834-0.749,1.101-1.432l1.839-4.707l1.902,0.744l-1.863,4.768c-0.482,1.236-1.194,2.052-2.137,2.447
				c-0.941,0.396-1.945,0.385-3.01-0.031c-1.065-0.416-1.811-1.092-2.237-2.027s-0.399-2.016,0.08-3.244l1.863-4.768l1.902,0.744
				l-1.84,4.707C128.522,21.071,128.471,21.672,128.634,22.19z"/>
			<path fill="#1273FF" d="M142.282,20.952l1.784,0.992l-4.447,7.998l-1.784-0.992L142.282,20.952z"/>
			<path fill="#1273FF" d="M155.021,30.802c0.22,1.163-0.097,2.313-0.949,3.452c-0.854,1.139-1.869,1.785-3.047,1.938
				c-1.179,0.154-2.466-0.293-3.863-1.339l-2.504-1.876l5.486-7.324l2.588,1.938C154.039,28.569,154.802,29.639,155.021,30.802z
				 M150.561,34.257c0.685-0.076,1.296-0.474,1.835-1.194c0.539-0.719,0.753-1.423,0.642-2.112
				c-0.111-0.689-0.583-1.344-1.414-1.967l-0.911-0.683l-3.336,4.453l1.037,0.777C149.16,34.091,149.876,34.333,150.561,34.257z"/>
			<path fill="#1273FF" d="M166.413,39.966l-1.31,1.263l-3.163-3.28l-1.356,1.309l2.844,2.95l-1.253,1.208l-2.845-2.95l-1.366,1.317
				l3.262,3.384l-1.301,1.254l-4.68-4.854l6.588-6.352L166.413,39.966z"/>
			<path fill="#1273FF" d="M170.567,48.133c-0.246-0.066-0.477-0.023-0.694,0.131c-0.217,0.154-0.32,0.374-0.31,0.661
				s0.18,0.846,0.508,1.679c0.327,0.832,0.456,1.567,0.385,2.207c-0.071,0.639-0.442,1.196-1.111,1.67
				c-0.669,0.475-1.39,0.608-2.162,0.402c-0.772-0.207-1.449-0.72-2.029-1.539c-0.838-1.182-1.155-2.557-0.95-4.125l1.922,0.13
				c-0.135,1.304,0.04,2.298,0.524,2.982c0.217,0.306,0.453,0.5,0.709,0.581c0.255,0.081,0.495,0.042,0.72-0.117
				c0.224-0.159,0.336-0.377,0.337-0.656c0-0.278-0.126-0.74-0.379-1.384c-0.41-1.015-0.592-1.841-0.545-2.479
				c0.046-0.637,0.423-1.207,1.131-1.708c0.709-0.502,1.436-0.635,2.181-0.398c0.746,0.236,1.389,0.735,1.929,1.498
				c0.354,0.498,0.621,1.057,0.804,1.677s0.248,1.226,0.197,1.818l-1.815,0.02c0.031-0.996-0.197-1.84-0.687-2.53
				C171.033,48.373,170.813,48.2,170.567,48.133z"/>
		</g>
		<g>
			<path fill="#FFA836" d="M187.018,96.558l-2.247,0.103l0.166,3.628l-1.275,0.058l-0.166-3.628l-3.369,0.155l-0.063-1.382
				l8.179-0.372l0.249,5.452l-1.287,0.047L187.018,96.558z"/>
			<path fill="#FFA836" d="M181.899,107.906l-1.769-1.006l0.15-1.469l7.777,4.424l-0.15,1.469l-8.514,2.754l0.15-1.467l1.937-0.627
				L181.899,107.906z M182.809,111.557l3.508-1.137l-3.204-1.824L182.809,111.557z"/>
			<path fill="#FFA836" d="M178.222,119.641l7.923,2.066l-0.349,1.338l-6.653-1.736l-0.943,3.615l-1.27-0.33L178.222,119.641z"/>
			<path fill="#FFA836" d="M174.946,130.305l7.557,3.152l-0.532,1.275l-6.346-2.646l-1.438,3.447l-1.211-0.504L174.946,130.305z"/>
			<path fill="#FFA836" d="M172.737,151.787l-0.796,1.131l-6.694-4.715l0.796-1.131L172.737,151.787z"/>
			<path fill="#FFA836" d="M162.898,163.688l-0.945,1.01l-5.974-5.6l1.024-1.094l7.531,0.699l-4.359-4.086l0.945-1.008l5.975,5.6
				l-0.945,1.008l-7.713-0.709L162.898,163.688z"/>
			<path fill="#FFA836" d="M144.588,168.244l4.363,6.928l-1.169,0.736l-3.665-5.818l-3.162,1.992l-0.698-1.111L144.588,168.244z"/>
			<path fill="#FFA836" d="M129.322,177.457c0.441-1.068,1.223-1.844,2.342-2.324c1.12-0.48,2.22-0.512,3.299-0.096
				s1.856,1.178,2.333,2.287c0.476,1.109,0.493,2.197,0.051,3.268c-0.442,1.068-1.224,1.844-2.343,2.324s-2.219,0.512-3.298,0.096
				c-1.08-0.416-1.857-1.18-2.333-2.289C128.897,179.615,128.881,178.525,129.322,177.457z M132.274,181.768
				c0.741,0.311,1.484,0.305,2.23-0.014c0.747-0.32,1.263-0.857,1.548-1.609c0.285-0.75,0.266-1.504-0.06-2.262
				c-0.325-0.756-0.858-1.291-1.599-1.602c-0.741-0.311-1.484-0.307-2.231,0.014c-0.746,0.32-1.262,0.855-1.547,1.607
				s-0.266,1.506,0.06,2.264C131,180.922,131.533,181.457,132.274,181.768z"/>
			<path fill="#FFA836" d="M118.272,179.611l1.503-0.363l5.126,7.182l-1.503,0.363l-3.887-5.35l-1.009,6.535l-1.502,0.365
				L118.272,179.611z"/>
			<path fill="#FFA836" d="M104.339,189.797l-0.094-1.297l4.358-0.314l-0.155-2.162l-3.915,0.283l-0.088-1.227l3.914-0.283
				l-0.158-2.186l-4.498,0.326l-0.094-1.297l5.877-0.424l0.59,8.166L104.339,189.797z"/>
			<path fill="#FFA836" d="M86.581,182.939l-2.924,5.432l-1.218-0.238L81.775,182l-3.154,5.387l-1.46-0.285l4.377-7.488l1.344,0.264
				l0.613,5.838l0.092,0.018l2.767-5.178l1.345,0.264l1.233,8.584l-1.46-0.285L86.581,182.939z"/>
			<path fill="#FFA836" d="M70.459,184.803l-1.298-0.475l2.805-7.691l1.299,0.475L70.459,184.803z"/>
			<path fill="#FFA836" d="M59.766,178.756l3.157-6.16l1.23,0.629l-3.158,6.162l2.21,1.133l-0.577,1.125l-5.65-2.895l0.577-1.125
				L59.766,178.756z"/>
			<path fill="#FFA836" d="M55.581,168.326l-4.824,6.615l-1.116-0.814l2.09-2.867l-3.284-2.395l-2.091,2.867l-1.117-0.814
				l4.824-6.615l1.117,0.814l-1.974,2.707l3.284,2.395l1.974-2.707L55.581,168.326z"/>
			<path fill="#FFA836" d="M32.862,152.289l-0.865-1.078l2.183-1.752c1.148,0.07,2.171,0.664,3.071,1.785
				c0.758,0.945,1.082,1.984,0.972,3.119c-0.111,1.135-0.641,2.084-1.591,2.848c-0.95,0.762-2.001,1.072-3.156,0.932
				c-1.154-0.139-2.101-0.67-2.838-1.59c-0.738-0.918-1.083-1.898-1.037-2.938l1.284-0.084c-0.012,0.422,0.042,0.791,0.162,1.109
				c0.121,0.318,0.316,0.645,0.584,0.98c0.519,0.645,1.162,1.02,1.931,1.123c0.77,0.104,1.494-0.117,2.172-0.662
				c0.679-0.545,1.053-1.195,1.122-1.951s-0.14-1.439-0.626-2.045c-0.487-0.605-1.024-1.008-1.614-1.205L32.862,152.289z"/>
			<path fill="#FFA836" d="M23.606,140.5c1.177-0.662,2.208-0.566,3.093,0.289l1.543-3.326l0.861,1.533l-1.441,3.053l0.89,1.582
				l2.4-1.348l0.677,1.203l-7.137,4.014l-1.492-2.654c-0.613-1.09-0.867-1.971-0.764-2.648
				C22.339,141.52,22.796,140.955,23.606,140.5z M25.518,141.533c-0.348-0.125-0.756-0.059-1.222,0.205
				c-0.466,0.262-0.716,0.566-0.747,0.918c-0.033,0.348,0.133,0.846,0.497,1.494l0.861,1.531l2.553-1.436l-0.843-1.502
				C26.232,142.064,25.867,141.66,25.518,141.533z"/>
			<path fill="#FFA836" d="M16.069,129.293l1.22-0.451l1.514,4.1l2.033-0.752l-1.36-3.68l1.154-0.426l1.359,3.68l2.055-0.758
				l-1.563-4.23l1.22-0.451l2.042,5.527l-7.681,2.838L16.069,129.293z"/>
			<path fill="#FFA836" d="M12.844,116.268l1.274-0.26l0.874,4.281l2.124-0.432l-0.785-3.846l1.205-0.246l0.785,3.844l2.146-0.438
				l-0.902-4.418l1.274-0.26l1.178,5.773l-8.022,1.637L12.844,116.268z"/>
			<path fill="#FFA836" d="M18.648,104.61c-0.022-0.476-0.121-0.882-0.296-1.217c-0.176-0.337-0.448-0.683-0.816-1.042l0.872-0.931
				c0.999,0.821,1.528,1.851,1.584,3.087c0.057,1.236-0.293,2.281-1.051,3.133c-0.758,0.852-1.746,1.305-2.963,1.361
				c-1.217,0.055-2.25-0.314-3.1-1.106c-0.849-0.794-1.303-1.823-1.362-3.091c-0.059-1.269,0.361-2.349,1.258-3.242l1,0.832
				c-0.356,0.408-0.6,0.79-0.732,1.143c-0.133,0.355-0.188,0.766-0.167,1.232c0.038,0.828,0.337,1.51,0.897,2.047
				c0.561,0.538,1.256,0.787,2.087,0.748c0.832-0.037,1.512-0.35,2.044-0.933C18.436,106.049,18.683,105.375,18.648,104.61z"/>
			<path fill="#FFA836" d="M12.541,88.521l1.292,0.145l-0.486,4.342L15.5,93.25l0.437-3.9l1.222,0.137l-0.437,3.899l2.177,0.244
				l0.502-4.481l1.292,0.145l-0.656,5.856L11.9,94.237L12.541,88.521z"/>
		</g>
		<g>
			<circle fill="#1273FF" cx="19.656" cy="69.718" r="2.621"/>
		</g>
		<g>
			<circle fill="#1273FF" cx="181.636" cy="74.959" r="2.621"/>
		</g>
	</g>
</g>
</svg>
