<?xml version="1.0" encoding="utf-8"?>
<!-- Generator: Adobe Illustrator 16.0.0, SVG Export Plug-In . SVG Version: 6.00 Build 0)  -->
<!DOCTYPE svg PUBLIC "-//W3C//DTD SVG 1.1//EN" "http://www.w3.org/Graphics/SVG/1.1/DTD/svg11.dtd">
<svg version="1.1" id="Layer_1" xmlns="http://www.w3.org/2000/svg" xmlns:xlink="http://www.w3.org/1999/xlink" x="0px" y="0px"
	 width="24px" height="24px" viewBox="0 0 24 24" enable-background="new 0 0 24 24" xml:space="preserve">
<path d="M20.5,3l-0.16,0.03L15,5.1L9,3L3.36,4.9C3.15,4.97,3,5.15,3,5.38V20.5C3,20.779,3.22,21,3.5,21l0.16-0.029L9,18.9l6,2.1
	l5.641-1.9C20.85,19.029,21,18.85,21,18.62V3.5C21,3.22,20.779,3,20.5,3z M15,19l-6-2.109V5l6,2.11V19z"/>
<path fill="none" d="M0,0h24v24H0V0z"/>
</svg>
